<?xml version="1.0" standalone="no"?>
<!DOCTYPE svg PUBLIC "-//W3C//DTD SVG 20010904//EN"
 "http://www.w3.org/TR/2001/REC-SVG-20010904/DTD/svg10.dtd">
<svg version="1.0" xmlns="http://www.w3.org/2000/svg"
 width="500.000000pt" height="500.000000pt" viewBox="0 0 500.000000 500.000000"
 preserveAspectRatio="xMidYMid meet">
<metadata>
Created by potrace 1.11, written by Peter Selinger 2001-2013
</metadata>
<g transform="translate(0.000000,500.000000) scale(0.100000,-0.100000)"
fill="#000000" stroke="none">
<path d="M0 2500 l0 -1160 245 0 245 0 0 1160 0 1160 -245 0 -245 0 0 -1160z"/>
<path d="M3330 2500 l0 -1160 245 0 245 0 0 407 0 406 63 -84 c76 -103 438
-592 496 -671 l42 -58 289 0 290 0 -98 132 c-54 73 -150 203 -213 288 -64 85
-161 217 -217 292 -56 76 -102 142 -102 148 0 7 136 202 254 365 87 118 279
391 282 399 3 8 -79 11 -274 11 l-279 0 -80 -110 c-44 -60 -162 -227 -264
-370 l-184 -260 -3 713 -2 712 -245 0 -245 0 0 -1160z"/>
<path d="M1395 2975 c-77 -17 -156 -48 -203 -80 l-37 -25 -5 47 -5 47 -242 1
-243 0 0 -812 0 -813 245 0 245 0 0 534 0 535 28 29 c82 87 241 123 342 80 79
-35 131 -120 146 -244 4 -33 8 -256 8 -496 l1 -438 245 0 245 0 -1 498 c0 273
-4 511 -8 527 -6 27 -1 35 36 72 65 64 146 97 238 97 133 1 202 -59 240 -208
19 -74 20 -111 20 -533 l0 -453 246 0 245 0 -3 538 c-4 515 -5 540 -26 617
-69 252 -220 411 -448 471 -47 12 -107 18 -189 18 -148 1 -201 -8 -315 -52
-59 -23 -128 -61 -156 -87 -6 -5 -23 -20 -37 -32 l-26 -22 -23 23 c-54 51
-157 119 -203 133 -143 43 -255 52 -360 28z"/>
</g>
</svg>
