<?xml version="1.0" standalone="no"?>
<!DOCTYPE svg PUBLIC "-//W3C//DTD SVG 20010904//EN"
 "http://www.w3.org/TR/2001/REC-SVG-20010904/DTD/svg10.dtd">
<svg version="1.0" xmlns="http://www.w3.org/2000/svg"
 width="500.000000pt" height="500.000000pt" viewBox="0 0 500.000000 500.000000"
 preserveAspectRatio="xMidYMid meet">
<metadata>
Created by potrace 1.11, written by Peter Selinger 2001-2013
</metadata>
<g transform="translate(0.000000,500.000000) scale(0.100000,-0.100000)"
fill="#000000" stroke="none">
<path d="M370 2600 l0 -1030 215 0 215 0 0 1030 0 1030 -215 0 -215 0 0 -1030z"/>
<path d="M3310 2600 l0 -1030 215 0 215 0 0 355 c0 195 3 355 8 355 4 0 124
-160 267 -355 l260 -354 258 -1 257 0 -113 153 c-331 447 -447 605 -447 611 0
3 105 153 233 333 128 181 237 334 241 341 6 9 -45 12 -242 12 l-248 0 -230
-325 c-126 -178 -232 -324 -236 -325 -5 0 -8 284 -8 630 l0 630 -215 0 -215 0
0 -1030z"/>
<path d="M1570 3019 c-41 -10 -100 -35 -132 -54 l-58 -34 0 44 0 45 -215 0
-215 0 0 -725 0 -725 215 0 215 0 0 469 c0 258 3 476 6 485 17 44 161 116 233
116 90 0 168 -60 203 -155 22 -58 23 -75 26 -487 l3 -428 215 0 215 0 -2 477
-1 478 37 32 c144 124 330 103 394 -47 34 -79 40 -169 41 -567 l0 -373 216 0
215 0 -4 483 c-4 534 -5 544 -72 684 -89 184 -254 286 -485 300 -164 10 -326
-36 -446 -127 l-53 -40 -68 51 c-79 60 -133 85 -223 105 -88 19 -171 17 -260
-7z"/>
</g>
</svg>
